<svg width="24" height="24" viewBox="0 0 24 24" fill="none" xmlns="http://www.w3.org/2000/svg">
<path d="M16.061 7.93888C15.4754 7.3529 14.5257 7.35262 13.9397 7.93823C13.9395 7.93846 13.9392 7.9387 13.939 7.93888L12 9.8789L10.061 7.93888C9.47504 7.3529 8.52498 7.3529 7.93905 7.93888C7.35311 8.52487 7.35306 9.47493 7.93905 10.0609L9.87901 11.9999L7.939 13.9389C7.35302 14.5249 7.35302 15.4749 7.939 16.0609C8.52498 16.6469 9.47504 16.6469 10.061 16.0609L12 14.1209L13.939 16.0609C14.525 16.6469 15.475 16.6469 16.061 16.0609C16.647 15.4749 16.647 14.5249 16.061 13.9389L14.121 11.9999L16.061 10.0609C16.647 9.4753 16.6473 8.52557 16.0617 7.93959C16.0614 7.93935 16.0613 7.93912 16.061 7.93888Z" fill="#FCA5A5"/>
<path d="M12 0C5.37258 0 0 5.37258 0 12C0 18.6274 5.37258 24 12 24C18.6274 24 24 18.6274 24 12C23.9928 5.37553 18.6245 0.00717187 12 0ZM12 21C7.02942 21 3 16.9706 3 12C3 7.02942 7.02942 3 12 3C16.9706 3 21 7.02942 21 12C20.9945 16.9683 16.9683 20.9945 12 21Z" fill="#FCA5A5"/>
</svg>
